<svg width="311" height="335" viewBox="0 0 311 335" fill="none" xmlns="http://www.w3.org/2000/svg">
<g clip-path="url(#clip0)">
<rect width="311" height="335" fill="white"/>
<path d="M11.4279 13.7625C43.9571 0.537935 215.67 -23.8322 261.678 60.0099C307.683 143.852 264.895 251.59 173.919 289.903C82.9444 328.219 -25.1613 265.156 5.22857 136.917C35.6183 8.6794 -21.1013 26.987 11.4279 13.7625Z" transform="matrix(0.443385 0.896331 -0.895965 0.444124 231.703 7.03906)" fill="#C4C4C4"/>
<path d="M11.4279 13.7625C43.9571 0.537933 215.67 -23.8322 261.678 60.0099C307.683 143.852 264.895 251.59 173.919 289.903C82.9444 328.219 -25.1613 265.156 5.22857 136.917C35.6183 8.6794 -21.1013 26.987 11.4279 13.7625Z" transform="matrix(0.443385 0.896331 -0.895965 0.444124 231.703 7.03906)" fill="url(#paint0_linear)"/>
<path d="M8.67544 0.799437C9.29451 -4.49423 42.7625 17.5511 44.192 35.9957C45.6214 54.4405 30.2036 65.7 15.772 62.9663C1.34029 60.2328 -3.255 41.4706 2.26482 23.4815C7.78463 5.49253 8.05638 6.0931 8.67544 0.799437Z" transform="translate(129.75) scale(-0.999992 1.00001) rotate(6.31337)" fill="#C4C4C4"/>
<path d="M8.67544 0.799437C9.29451 -4.49423 42.7625 17.5511 44.192 35.9957C45.6214 54.4405 30.2036 65.7 15.772 62.9663C1.34029 60.2328 -3.255 41.4706 2.26482 23.4815C7.78463 5.49253 8.05638 6.0931 8.67544 0.799437Z" transform="translate(129.75) scale(-0.999992 1.00001) rotate(6.31337)" fill="url(#paint1_linear)"/>
<path d="M57.5172 52.1075C57.5172 54.1626 57.1528 55.6874 56.4245 56.6818C55.6959 57.6763 54.537 58.6375 52.9476 59.5657C52.0204 60.0961 50.8615 60.6263 49.4708 61.1567C48.08 61.6207 46.5568 62.0185 44.9012 62.35C43.2454 62.7478 41.4905 63.0461 39.6362 63.245C37.8481 63.4439 36.06 63.5433 34.2719 63.5433C29.5037 63.5433 25.0334 62.9135 20.8612 61.6539C16.689 60.328 13.0464 58.3724 9.93392 55.7869C6.88741 53.1351 4.47028 49.8536 2.68218 45.9421C0.894085 42.0307 0 37.4896 0 32.3186C0 26.8825 0.960252 22.1423 2.88086 18.0984C4.86764 14.0545 7.45045 10.7065 10.6293 8.05479C13.8743 5.33665 17.5498 3.31479 21.6559 1.98884C25.8281 0.662888 30.0997 0 34.4706 0C40.7619 0 45.7289 1.02763 49.3714 3.0827C53.0799 5.07154 54.9344 7.69023 54.9344 10.9386C54.9344 12.6623 54.5039 14.1539 53.643 15.4135C52.7819 16.673 51.7885 17.6674 50.6628 18.3967C49.0071 17.4023 46.9209 16.4411 44.4045 15.5129C41.954 14.5185 39.1725 14.0213 36.06 14.0213C30.497 14.0213 26.0598 15.6124 22.7486 18.7945C19.5034 21.9766 17.881 26.3853 17.881 32.0203C17.881 35.0698 18.3114 37.7217 19.1724 39.9756C20.0995 42.1633 21.3247 43.9865 22.848 45.4449C24.371 46.8371 26.1261 47.8978 28.1129 48.6271C30.0997 49.2899 32.2188 49.6215 34.4706 49.6215C35.9275 49.6215 37.2189 49.4888 38.3448 49.2237C39.4705 48.9586 40.3316 48.6603 40.9276 48.3287V38.9812H30.2984C29.901 38.2519 29.5037 37.2907 29.1063 36.0974C28.7751 34.9041 28.6096 33.6445 28.6096 32.3186C28.6096 29.932 29.1393 28.2083 30.199 27.1476C31.3248 26.087 32.7487 25.5565 34.4706 25.5565H51.2589C53.2456 25.5565 54.7687 26.12 55.8284 27.2471C56.9542 28.3077 57.5172 29.8325 57.5172 31.8214V52.1075ZM68.9474 10.9386C68.9474 8.088 69.7751 5.83386 71.4308 4.17656C73.0864 2.51926 75.338 1.69051 78.1859 1.69051H110.968C111.431 2.41981 111.829 3.38102 112.16 4.57433C112.557 5.76763 112.756 7.02716 112.756 8.35311C112.756 10.8724 112.193 12.6623 111.067 13.723C110.007 14.7836 108.584 15.314 106.795 15.314H85.835V24.5621H108.186C108.65 25.2914 109.047 26.2526 109.378 27.4459C109.776 28.573 109.974 29.7993 109.974 31.1253C109.974 33.6445 109.444 35.4345 108.385 36.4952C107.325 37.5558 105.901 38.0862 104.113 38.0862H85.835V48.5276H111.365C111.829 49.2569 112.226 50.2181 112.557 51.4114C112.954 52.6047 113.153 53.8643 113.153 55.1902C113.153 57.7095 112.59 59.5324 111.464 60.6595C110.405 61.7202 108.981 62.2506 107.193 62.2506H78.1859C75.338 62.2506 73.0864 61.4218 71.4308 59.7645C69.7751 58.1072 68.9474 55.8531 68.9474 53.0025V10.9386ZM123.37 10.9386C123.37 8.088 124.198 5.83386 125.854 4.17656C127.509 2.51926 129.761 1.69051 132.609 1.69051H165.391C165.854 2.41981 166.252 3.38102 166.583 4.57433C166.981 5.76763 167.179 7.02716 167.179 8.35311C167.179 10.8724 166.615 12.6623 165.491 13.723C164.43 14.7836 163.007 15.314 161.219 15.314H140.258V24.5621H162.61C163.073 25.2914 163.47 26.2526 163.802 27.4459C164.199 28.573 164.398 29.7993 164.398 31.1253C164.398 33.6445 163.868 35.4345 162.809 36.4952C161.748 37.5558 160.325 38.0862 158.536 38.0862H140.258V48.5276H165.789C166.252 49.2569 166.649 50.2181 166.981 51.4114C167.378 52.6047 167.577 53.8643 167.577 55.1902C167.577 57.7095 167.013 59.5324 165.888 60.6595C164.827 61.7202 163.405 62.2506 161.616 62.2506H132.609C129.761 62.2506 127.509 61.4218 125.854 59.7645C124.198 58.1072 123.37 55.8531 123.37 53.0025V10.9386ZM187.031 62.2506C184.184 62.2506 181.933 61.4218 180.276 59.7645C178.621 58.1072 177.793 55.8531 177.793 53.0025V1.59107C178.522 1.45842 179.68 1.29274 181.27 1.09386C182.859 0.828742 184.383 0.696092 185.839 0.696092C187.363 0.696092 188.688 0.828742 189.813 1.09386C191.005 1.29274 191.998 1.69051 192.793 2.28716C193.588 2.88381 194.184 3.71255 194.581 4.77321C194.978 5.83386 195.177 7.22605 195.177 8.94976V48.2293H217.926C218.39 48.9586 218.82 49.953 219.217 51.2125C219.614 52.4058 219.813 53.6654 219.813 54.9913C219.813 57.643 219.251 59.5324 218.124 60.6595C217 61.7202 215.51 62.2506 213.654 62.2506H187.031Z" transform="translate(48.2344 121.305)" fill="white"/>
<path d="M37.7842 1.68696C38.1981 2.33813 38.5528 3.226 38.8486 4.35058C39.2033 5.41603 39.3807 6.54061 39.3807 7.7245C39.3807 10.033 38.878 11.6903 37.8729 12.6966C36.9267 13.6436 35.6259 14.1172 33.9703 14.1172H15.3443V24.1502H34.7686C35.2415 24.8013 35.6259 25.6595 35.9216 26.725C36.2764 27.7904 36.4538 28.915 36.4538 30.0989C36.4538 32.3482 35.9511 33.9759 34.946 34.9822C33.9998 35.9292 32.699 36.4028 31.0434 36.4028H15.5217V55.1369C14.8712 55.3145 13.8365 55.4921 12.4173 55.6697C11.0573 55.8472 9.69724 55.936 8.33736 55.936C6.97731 55.936 5.7652 55.8176 4.70085 55.5809C3.69558 55.4033 2.83825 55.0482 2.12869 54.5154C1.41913 53.9827 0.886953 53.2428 0.532172 52.2957C0.177391 51.3487 0 50.1057 0 48.5667V9.94418C0 7.399 0.73901 5.38637 2.21738 3.90664C3.69558 2.42691 5.70595 1.68696 8.24867 1.68696H37.7842ZM44.0254 28.5007C44.0254 23.8838 44.7349 19.7996 46.154 16.2481C47.6324 12.6966 49.6132 9.73695 52.0966 7.36935C54.6393 4.94244 57.5957 3.10756 60.9662 1.86453C64.3958 0.621511 68.0914 0 72.0531 0C76.0149 0 79.6809 0.621511 83.0513 1.86453C86.481 3.10756 89.467 4.94244 92.0095 7.36935C94.5522 9.73695 96.533 12.6966 97.9521 16.2481C99.4305 19.7996 100.169 23.8838 100.169 28.5007C100.169 33.1177 99.4599 37.2316 98.0408 40.8422C96.6217 44.3937 94.6409 47.3828 92.0982 49.8097C89.6148 52.1773 86.6584 53.9827 83.2287 55.2257C79.7992 56.4688 76.074 57.0903 72.0531 57.0903C68.0323 57.0903 64.3071 56.4688 60.8775 55.2257C57.448 53.9236 54.4914 52.059 52.0079 49.6321C49.5245 47.2052 47.5732 44.2161 46.154 40.6646C44.7349 37.1131 44.0254 33.0585 44.0254 28.5007ZM59.9905 28.5007C59.9905 33.8871 61.0845 37.9122 63.2722 40.5758C65.4602 43.2394 68.3871 44.5712 72.0531 44.5712C75.7783 44.5712 78.7348 43.2394 80.9226 40.5758C83.1105 37.9122 84.2043 33.8871 84.2043 28.5007C84.2043 23.1735 83.1105 19.1781 80.9226 16.5144C78.7939 13.8508 75.867 12.519 72.1418 12.519C68.4758 12.519 65.5192 13.8508 63.2722 16.5144C61.0845 19.1189 59.9905 23.1144 59.9905 28.5007ZM106.389 28.5007C106.389 23.8838 107.099 19.7996 108.518 16.2481C109.996 12.6966 111.977 9.73695 114.461 7.36935C117.003 4.94244 119.96 3.10756 123.33 1.86453C126.76 0.621511 130.455 0 134.417 0C138.379 0 142.045 0.621511 145.415 1.86453C148.845 3.10756 151.831 4.94244 154.374 7.36935C156.916 9.73695 158.897 12.6966 160.316 16.2481C161.794 19.7996 162.534 23.8838 162.534 28.5007C162.534 33.1177 161.824 37.2316 160.405 40.8422C158.986 44.3937 157.005 47.3828 154.462 49.8097C151.979 52.1773 149.022 53.9827 145.593 55.2257C142.163 56.4688 138.438 57.0903 134.417 57.0903C130.396 57.0903 126.671 56.4688 123.241 55.2257C119.812 53.9236 116.855 52.059 114.372 49.6321C111.888 47.2052 109.937 44.2161 108.518 40.6646C107.099 37.1131 106.389 33.0585 106.389 28.5007ZM122.355 28.5007C122.355 33.8871 123.448 37.9122 125.636 40.5758C127.824 43.2394 130.751 44.5712 134.417 44.5712C138.142 44.5712 141.099 43.2394 143.287 40.5758C145.474 37.9122 146.568 33.8871 146.568 28.5007C146.568 23.1735 145.474 19.1781 143.287 16.5144C141.158 13.8508 138.231 12.519 134.506 12.519C130.84 12.519 127.883 13.8508 125.636 16.5144C123.448 19.1189 122.355 23.1144 122.355 28.5007ZM186.847 43.9497C187.498 44.0682 188.296 44.1864 189.242 44.3049C190.187 44.364 191.074 44.3937 191.902 44.3937C193.912 44.3937 195.747 44.0977 197.402 43.5058C199.117 42.9139 200.564 41.9964 201.748 40.7534C202.989 39.5104 203.935 37.9122 204.586 35.9589C205.295 33.9464 205.65 31.5492 205.65 28.7671C205.65 23.4399 204.409 19.4444 201.925 16.7808C199.442 14.0581 196.13 12.6966 191.991 12.6966C191.163 12.6966 190.306 12.7262 189.419 12.7854C188.591 12.8445 187.734 12.9333 186.847 13.0517V43.9497ZM191.814 56.9127C190.808 56.9127 189.655 56.883 188.355 56.8239C187.054 56.7648 185.694 56.6463 184.275 56.4688C182.914 56.2912 181.525 56.0545 180.106 55.7585C178.745 55.5217 177.475 55.1666 176.292 54.693C173.041 53.45 171.414 51.2894 171.414 48.2115V6.74784C171.414 5.50482 171.738 4.55781 172.39 3.90664C173.099 3.19634 174.045 2.63397 175.228 2.21968C177.77 1.39094 180.461 0.858218 183.299 0.621511C186.137 0.325494 188.679 0.177575 190.927 0.177575C195.539 0.177575 199.708 0.739954 203.433 1.86453C207.217 2.98911 210.44 4.73538 213.101 7.10299C215.82 9.41146 217.92 12.3414 219.398 15.8929C220.876 19.4444 221.615 23.6471 221.615 28.5007C221.615 33.2361 220.906 37.3795 219.487 40.931C218.068 44.4233 216.028 47.3828 213.367 49.8097C210.764 52.1773 207.632 53.9531 203.965 55.1369C200.298 56.3208 196.249 56.9127 191.814 56.9127Z" transform="translate(49.6289 191.691)" fill="white"/>
</g>
<defs>
<linearGradient id="paint0_linear" x2="1" gradientUnits="userSpaceOnUse" gradientTransform="matrix(-307.949 -375.386 -169.341 138.785 376.961 167.281)">
<stop stop-color="#72D6BE"/>
<stop offset="1" stop-color="#EDDE58"/>
</linearGradient>
<linearGradient id="paint1_linear" x2="1" gradientUnits="userSpaceOnUse" gradientTransform="matrix(-211.165 33.0542 -67.2257 -455.033 202.536 465.822)">
<stop offset="0.0319238" stop-color="#59CFAC"/>
<stop offset="0.9999" stop-color="#EDDE58"/>
</linearGradient>
<clipPath id="clip0">
<rect width="311" height="335" fill="white"/>
</clipPath>
</defs>
</svg>
